# xmcd
#
# Track frame offsets: 
#        150
#        20110
#        33485
#        54460
#        76382
#        97080
#        121325
#        154552
#        176957
#        193615
#        210260
#        231622
#        256830
#        272185
#        294872
#        310545
#        334045
#
# Disc length: 4714 seconds
#
# Revision: 17
# Processed by: cddbd v1.5.2PL0 Copyright (c) Steve Scherf et al.
# Submitted via: ExactAudioCopyFreeDBPlugin 1.0
#
DISCID=ed126811
DTITLE=Stevie Wonder - At the Close of the Century
DYEAR=1999
DGENRE=Rhythm and Blues
TTITLE0=Superstition
TTITLE1=You Are the Sunshine of My Life
TTITLE2=You and I
TTITLE3=I Believe (When I Fall in Love It Will Be Forever)
TTITLE4=Too High
TTITLE5=Visions
TTITLE6=Living for the City
TTITLE7=Golden Lady
TTITLE8=Higher Ground
TTITLE9=All in Love is Fair
TTITLE10=Don't You Worry 'Bout a Thing
TTITLE11=He's Misstra Know It All
TTITLE12=You Haven't Done Nothin'
TTITLE13=Heaven is 10 Zillion Light Years Away
TTITLE14=Too Shy to Say
TTITLE15=Boogie on Reggae Woman
TTITLE16=Creepin'
EXTD=YEAR: 1999
EXTT0=
EXTT1=
EXTT2=
EXTT3=
EXTT4=
EXTT5=
EXTT6=
EXTT7=
EXTT8=
EXTT9=
EXTT10=
EXTT11=
EXTT12=
EXTT13=
EXTT14=
EXTT15=
EXTT16=
PLAYORDER=
